<?xml version="1.0" encoding="UTF-8" standalone="no"?>
<svg
  xmlns:dc="http://purl.org/dc/elements/1.1/"
  xmlns:cc="http://creativecommons.org/ns#"
  xmlns:rdf="http://www.w3.org/1999/02/22-rdf-syntax-ns#"
  xmlns="http://www.w3.org/2000/svg"
  viewBox="0 0 396.85068 207.87466"
  height="207.87466"
  width="396.85068"
  xml:space="preserve"
  id="svg2"
  version="1.1"><metadata
     id="metadata8"><rdf:RDF><cc:Work
         rdf:about=""><dc:format>image/svg+xml</dc:format><dc:type
  rdf:resource="http://purl.org/dc/dcmitype/StillImage"/></cc:Work></rdf:RDF></metadata>
  <defs
    id="defs6"><clipPath
       id="clipPath18"
       clipPathUnits="userSpaceOnUse"><path
         id="path16"
         d="M 0,155.906 H 297.638 V 0 H 0 Z" /></clipPath>
    <clipPath
      id="clipPath34"
      clipPathUnits="userSpaceOnUse"><path
         id="path32"
         d="M 0,155.906 H 297.638 V 0 H 0 Z" /></clipPath>
    <clipPath
      id="clipPath146"
      clipPathUnits="userSpaceOnUse"><path
         id="path144"
         d="M 0,155.906 H 297.638 V 0 H 0 Z" /></clipPath></defs>
  <g
    transform="matrix(1.3333333,0,0,-1.3333333,0,207.87467)"
    id="g10"><g
       id="g12"><g
         clip-path="url(#clipPath18)"
         id="g14"><g
           transform="translate(27.3857,112.5769)"
           id="g20"><path
             id="path22"
             style="fill:#00813d;fill-opacity:1;fill-rule:nonzero;stroke:none"
             d="M 0,0 V -0.017 C -0.224,-0.008 -0.451,0 -0.677,0 -9.352,0 -16.386,-7.032 -16.386,-15.707 v -47.125 h 228.094 c 8.673,0 15.705,7.035 15.705,15.709 V 0 Z" /></g><g
    transform="translate(14.061,42.5305)"
    id="g24"><path
             id="path26"
             style="fill:#005925;fill-opacity:1;fill-rule:nonzero;stroke:none"
             d="M 0,0 12.583,-5.239 V 7.215 H -3.061 V 4.037 C -3.066,2.342 -1.886,0.785 0,0" /></g></g></g>
    <g
      id="g28"><g
         clip-path="url(#clipPath34)"
         id="g30"><g
           transform="translate(52.5112,82.2571)"
           id="g36"><path
             id="path38"
             style="fill:#ffffff;fill-opacity:1;fill-rule:nonzero;stroke:none"
             d="m 0,0 c 0,2.156 -2.177,3.853 -4.841,3.853 -2.887,0 -5.242,-1.697 -5.42,-3.853 z m -16.968,-2.612 c 0,3.622 1.155,6.556 3.421,8.756 2.264,2.248 5.197,3.347 8.706,3.347 3.419,0 6.172,-1.145 8.307,-3.392 2.13,-2.246 3.196,-4.998 3.196,-8.346 0,-0.777 -0.044,-1.513 -0.089,-2.2 H -10.35 c 0.133,-2.751 2.444,-4.539 5.952,-4.539 2.09,0 3.909,0.733 5.462,2.246 l 3.865,-3.806 c -2.62,-2.796 -5.862,-4.216 -9.637,-4.216 -3.688,0 -6.618,1.099 -8.884,3.254 -2.264,2.201 -3.376,5.089 -3.376,8.712 z" /></g><g
      transform="translate(61.896,91.1536)"
      id="g40"><path
             id="path42"
             style="fill:#ffffff;fill-opacity:1;fill-rule:nonzero;stroke:none"
             d="m 0,0 h 6.707 v -13.207 c 0,-2.933 1.643,-4.261 4.085,-4.261 2.444,0 4.086,1.328 4.086,4.261 V 0 h 6.707 v -13.801 c 0,-3.21 -1.021,-5.687 -3.107,-7.382 -2.046,-1.697 -4.621,-2.568 -7.686,-2.568 -3.065,0 -5.641,0.871 -7.727,2.568 C 1.022,-19.488 0,-17.011 0,-13.801 Z" /></g><g
      transform="translate(87.6035,68.0442)"
      id="g44"><path
             id="path46"
             style="fill:#ffffff;fill-opacity:1;fill-rule:nonzero;stroke:none"
             d="m 0,0 v 23.108 h 6.616 v -3.164 c 1.022,2.34 3.421,3.669 6.486,3.669 0.443,0 1.022,-0.046 1.732,-0.137 v -6.421 c -0.666,0.14 -1.42,0.231 -2.221,0.231 -3.776,0 -5.997,-2.2 -5.997,-6.007 V 0 Z" /></g><g
      transform="translate(112.0713,75.2883)"
      id="g48"><path
             id="path50"
             style="fill:#ffffff;fill-opacity:1;fill-rule:nonzero;stroke:none"
             d="M 0,0 C 1.111,-1.146 2.486,-1.742 4.131,-1.742 5.774,-1.742 7.152,-1.146 8.263,0 9.371,1.192 9.95,2.614 9.95,4.311 9.95,6.006 9.371,7.429 8.263,8.574 7.152,9.766 5.774,10.362 4.131,10.362 2.486,10.362 1.111,9.766 0,8.574 -1.111,7.429 -1.687,6.006 -1.687,4.311 -1.687,2.614 -1.111,1.148 0,0 m 12.926,12.976 c 2.442,-2.337 3.642,-5.226 3.642,-8.665 0,-3.44 -1.2,-6.327 -3.642,-8.711 -2.444,-2.34 -5.374,-3.532 -8.795,-3.532 -3.463,0 -6.397,1.192 -8.839,3.532 -2.397,2.384 -3.597,5.271 -3.597,8.711 0,3.439 1.2,6.328 3.597,8.665 2.442,2.384 5.376,3.576 8.839,3.576 3.421,0 6.351,-1.192 8.795,-3.576" /></g><g
      transform="translate(152.249,87.5774)"
      id="g52"><path
             id="path54"
             style="fill:#ffffff;fill-opacity:1;fill-rule:nonzero;stroke:none"
             d="m 0,0 -4.176,-4.265 c -1.465,1.606 -3.152,2.384 -5.151,2.384 -3.241,0 -5.73,-2.568 -5.73,-6.053 0,-3.483 2.532,-6.006 5.73,-6.006 1.999,0 3.686,0.782 5.151,2.386 L 0,-15.819 c -2.531,-2.889 -5.641,-4.309 -9.327,-4.309 -3.464,0 -6.395,1.145 -8.795,3.484 -2.353,2.337 -3.552,5.227 -3.552,8.71 0,3.485 1.199,6.374 3.552,8.714 2.4,2.337 5.331,3.529 8.795,3.529 C -5.641,4.309 -2.531,2.889 0,0" /></g><g
      transform="translate(169.5625,75.4719)"
      id="g56"><path
             id="path58"
             style="fill:#ffffff;fill-opacity:1;fill-rule:nonzero;stroke:none"
             d="m 0,0 c 1.155,1.146 1.732,2.522 1.732,4.126 0,1.608 -0.577,2.98 -1.732,4.082 -1.11,1.146 -2.486,1.695 -4.131,1.695 -1.598,0 -2.931,-0.549 -4.041,-1.695 -1.109,-1.102 -1.643,-2.474 -1.643,-4.082 0,-1.604 0.534,-2.98 1.643,-4.126 1.11,-1.1 2.443,-1.649 4.041,-1.649 C -2.486,-1.649 -1.11,-1.1 0,0 m 1.331,12.655 v 3.027 H 7.949 V -7.428 H 1.331 V -4.4 c -0.665,-2.019 -3.285,-3.442 -6.662,-3.442 -3.153,0 -5.816,1.149 -7.948,3.442 -2.089,2.337 -3.155,5.179 -3.155,8.526 0,3.349 1.066,6.192 3.155,8.485 2.132,2.337 4.795,3.483 7.948,3.483 3.377,0 5.997,-1.421 6.662,-3.439" /></g><g
      transform="translate(183.6895,75.7473)"
      id="g60"><path
             id="path62"
             style="fill:#ffffff;fill-opacity:1;fill-rule:nonzero;stroke:none"
             d="m 0,0 c 1.243,-1.513 3.599,-2.521 6.13,-2.521 2.266,0 3.375,0.64 3.375,1.878 0,0.459 -0.266,0.828 -0.755,1.102 C 8.261,0.733 7.373,1.056 6.043,1.376 4.71,1.697 3.688,2.018 3.021,2.246 c -3.42,1.239 -5.152,3.348 -5.152,6.42 0,2.339 0.844,4.171 2.531,5.456 1.688,1.329 3.731,1.972 6.174,1.972 3.153,0 5.684,-1.009 7.685,-2.98 L 11.104,8.621 c -1.2,1.145 -2.797,1.695 -4.708,1.695 -1.421,0 -2.218,-0.596 -2.218,-1.467 0,-0.596 0.219,-0.915 0.931,-1.239 0.842,-0.365 2.708,-0.687 5.197,-1.604 3.685,-1.285 5.507,-3.485 5.507,-6.556 0,-4.722 -3.288,-7.794 -9.862,-7.794 -4.351,0 -7.595,1.374 -9.769,4.126 z" /></g><g
      transform="translate(202.3584,68.0442)"
      id="g64"><path
             id="path66"
             style="fill:#ffffff;fill-opacity:1;fill-rule:nonzero;stroke:none"
             d="M 0,0 V 31.959 H 6.618 V 20.312 c 0.888,2.018 3.288,3.301 6.262,3.301 5.286,0 8.307,-3.576 8.307,-9.582 V 0 h -6.619 v 13.205 c 0,2.705 -1.378,4.355 -3.819,4.355 -2.444,0 -4.131,-1.878 -4.131,-4.584 L 6.618,0 Z" /></g><g
      transform="translate(35.4922,34.343)"
      id="g68"><path
             id="path70"
             style="fill:#00813d;fill-opacity:1;fill-rule:nonzero;stroke:none"
             d="m 0,0 v -2.234 h 2.984 v -8.885 h 2.432 v 8.885 h 2.938 l 0,2.234 z" /></g><g
      transform="translate(58.499,34.343)"
      id="g72"><path
             id="path74"
             style="fill:#00813d;fill-opacity:1;fill-rule:nonzero;stroke:none"
             d="M 0,0 -2.068,-6.812 -4.042,0 H -5.953 L -7.927,-6.812 -9.995,0 h -2.401 l 3.332,-11.119 h 2.052 l 2.006,6.636 2.005,-6.636 h 2.054 L 2.385,0 Z" /></g><g
      transform="translate(64.4824,32.843)"
      id="g76"><path
             id="path78"
             style="fill:#00813d;fill-opacity:1;fill-rule:nonzero;stroke:none"
             d="m 0,0 c 1.153,1.116 2.542,1.675 4.169,1.675 1.626,0 3.016,-0.559 4.153,-1.675 1.153,-1.117 1.721,-2.472 1.721,-4.084 0,-1.611 -0.568,-2.983 -1.705,-4.101 -1.137,-1.099 -2.526,-1.658 -4.169,-1.658 -1.627,0 -3.016,0.559 -4.169,1.658 -1.137,1.118 -1.705,2.49 -1.705,4.101 0,1.612 0.568,2.967 1.705,4.084 m 1.721,-6.604 c 0.664,-0.671 1.484,-1.006 2.448,-1.006 0.963,0 1.769,0.335 2.432,1.021 0.679,0.686 1.01,1.532 1.01,2.505 0,0.973 -0.331,1.803 -0.994,2.489 -0.664,0.686 -1.485,1.036 -2.448,1.036 -0.964,0 -1.784,-0.35 -2.448,-1.036 -0.663,-0.686 -0.994,-1.516 -0.994,-2.489 0,-1.005 0.331,-1.834 0.994,-2.52" /></g><g
      transform="translate(76.4395,25.3772)"
      id="g80"><path
             id="path82"
             style="fill:#00813d;fill-opacity:1;fill-rule:nonzero;stroke:none"
             d="m 0,0 c 0.237,-0.064 0.552,-0.097 0.947,-0.097 1.074,0 1.343,0.592 1.343,1.612 v 7.45 H 4.721 V 1.659 C 4.721,0.718 4.69,0.175 4.422,-0.591 4.074,-1.675 3.174,-2.267 1.263,-2.329 0.821,-2.329 0.395,-2.297 0,-2.218 Z" /></g><g
      transform="translate(84.8213,34.343)"
      id="g84"><path
             id="path86"
             style="fill:#00813d;fill-opacity:1;fill-rule:nonzero;stroke:none"
             d="m 0,0 v -11.119 h 7.628 v 2.232 H 2.432 v 2.377 h 4.754 v 2.186 H 2.432 v 2.09 H 7.517 V 0 Z" /></g><g
      transform="translate(110.7476,34.343)"
      id="g88"><path
             id="path90"
             style="fill:#00813d;fill-opacity:1;fill-rule:nonzero;stroke:none"
             d="M 0,0 V -6.908 L -5.274,0 h -1.683 v -11.119 h 1.872 v 7.098 l 5.449,-7.098 H 2.353 L 2.353,0 Z" /></g><g
      transform="translate(117.9702,32.843)"
      id="g92"><path
             id="path94"
             style="fill:#00813d;fill-opacity:1;fill-rule:nonzero;stroke:none"
             d="m 0,0 c 1.153,1.116 2.542,1.675 4.169,1.675 1.626,0 3.016,-0.559 4.153,-1.675 1.153,-1.117 1.721,-2.472 1.721,-4.084 0,-1.611 -0.568,-2.983 -1.705,-4.101 -1.137,-1.099 -2.527,-1.658 -4.169,-1.658 -1.627,0 -3.016,0.559 -4.169,1.658 -1.137,1.118 -1.705,2.49 -1.705,4.101 0,1.612 0.568,2.967 1.705,4.084 m 1.721,-6.604 c 0.663,-0.671 1.484,-1.006 2.448,-1.006 0.963,0 1.769,0.335 2.432,1.021 0.679,0.686 1.01,1.532 1.01,2.505 0,0.973 -0.331,1.803 -0.995,2.489 -0.663,0.686 -1.484,1.036 -2.447,1.036 -0.964,0 -1.785,-0.35 -2.448,-1.036 -0.663,-0.686 -0.994,-1.516 -0.994,-2.489 0,-1.005 0.331,-1.834 0.994,-2.52" /></g><g
      transform="translate(142.2954,34.343)"
      id="g96"><path
             id="path98"
             style="fill:#00813d;fill-opacity:1;fill-rule:nonzero;stroke:none"
             d="M 0,0 -2.069,-6.812 -4.043,0 H -5.954 L -7.928,-6.812 -9.996,0 h -2.401 l 3.332,-11.119 h 2.053 l 2.006,6.636 2.005,-6.636 h 2.053 L 2.384,0 Z" /></g><g
      transform="translate(147.3794,34.343)"
      id="g100"><path
             id="path102"
             style="fill:#00813d;fill-opacity:1;fill-rule:nonzero;stroke:none"
             d="m 0,0 v -11.119 h 7.628 v 2.232 H 2.433 v 2.377 h 4.753 v 2.186 H 2.433 v 2.09 h 5.084 l 0,2.234 z" /></g><g
      transform="translate(175.9336,34.343)"
      id="g104"><path
             id="path106"
             style="fill:#00813d;fill-opacity:1;fill-rule:nonzero;stroke:none"
             d="M 0,0 -3.774,-5.695 -7.547,0 h -2.038 v -11.119 h 2.274 v 6.779 l 3.537,-5.264 3.522,5.264 v -6.779 h 2.29 L 2.038,0 Z" /></g><g
      transform="translate(182.8496,32.843)"
      id="g108"><path
             id="path110"
             style="fill:#00813d;fill-opacity:1;fill-rule:nonzero;stroke:none"
             d="m 0,0 c 1.151,1.116 2.542,1.675 4.169,1.675 1.626,0 3.016,-0.559 4.152,-1.675 1.154,-1.117 1.722,-2.472 1.722,-4.084 0,-1.611 -0.568,-2.983 -1.706,-4.101 -1.138,-1.099 -2.526,-1.658 -4.168,-1.658 -1.627,0 -3.018,0.559 -4.169,1.658 -1.138,1.118 -1.706,2.49 -1.706,4.101 0,1.612 0.568,2.967 1.706,4.084 m 1.721,-6.604 c 0.663,-0.671 1.484,-1.006 2.448,-1.006 0.963,0 1.768,0.335 2.431,1.021 0.678,0.686 1.01,1.532 1.01,2.505 0,0.973 -0.332,1.803 -0.995,2.489 -0.663,0.686 -1.483,1.036 -2.446,1.036 -0.964,0 -1.785,-0.35 -2.448,-1.036 -0.663,-0.686 -0.994,-1.516 -0.994,-2.489 0,-1.005 0.331,-1.834 0.994,-2.52" /></g><g
      transform="translate(195.0605,23.2239)"
      id="g112"><path
             id="path114"
             style="fill:#00813d;fill-opacity:1;fill-rule:nonzero;stroke:none"
             d="m 0,0 v 1.675 l 5.843,7.21 h -5.29 v 2.234 h 8.48 V 9.269 L 3.332,2.232 H 9.143 V 0 Z m 3.711,12.984 c 0,0.622 0.52,1.134 1.168,1.134 0.632,0 1.153,-0.512 1.153,-1.134 0,-0.637 -0.521,-1.131 -1.153,-1.131 -0.648,0 -1.168,0.494 -1.168,1.131" /></g><g
      transform="translate(207.4316,34.343)"
      id="g116"><path
             id="path118"
             style="fill:#00813d;fill-opacity:1;fill-rule:nonzero;stroke:none"
             d="m 0,0 v -11.119 h 6.729 v 2.232 H 2.434 V 0 Z" /></g><path
      id="path120"
      style="fill:#00813d;fill-opacity:1;fill-rule:nonzero;stroke:none"
      d="m 216.948,23.223 h 2.432 v 11.12 h -2.432 z"/><g
      transform="translate(234.4736,34.343)"
      id="g122"><path
             id="path124"
             style="fill:#00813d;fill-opacity:1;fill-rule:nonzero;stroke:none"
             d="M 0,0 -2.068,-6.812 -4.043,0 H -5.954 L -7.928,-6.812 -9.996,0 h -2.401 l 3.332,-11.119 h 2.052 l 2.005,6.636 2.007,-6.636 h 2.054 L 2.384,0 Z" /></g><g
      transform="translate(240.4561,32.843)"
      id="g126"><path
             id="path128"
             style="fill:#00813d;fill-opacity:1;fill-rule:nonzero;stroke:none"
             d="m 0,0 c 1.152,1.116 2.542,1.675 4.169,1.675 1.626,0 3.017,-0.559 4.153,-1.675 1.154,-1.117 1.721,-2.472 1.721,-4.084 0,-1.611 -0.567,-2.983 -1.706,-4.101 -1.136,-1.099 -2.525,-1.658 -4.168,-1.658 -1.627,0 -3.017,0.559 -4.169,1.658 -1.137,1.118 -1.706,2.49 -1.706,4.101 0,1.612 0.569,2.967 1.706,4.084 m 1.722,-6.604 c 0.664,-0.671 1.483,-1.006 2.447,-1.006 0.964,0 1.769,0.335 2.432,1.021 0.678,0.686 1.01,1.532 1.01,2.505 0,0.973 -0.332,1.803 -0.994,2.489 -0.664,0.686 -1.484,1.036 -2.448,1.036 -0.964,0 -1.783,-0.35 -2.447,-1.036 -0.663,-0.686 -0.994,-1.516 -0.994,-2.489 0,-1.005 0.331,-1.834 0.994,-2.52" /></g><g
      transform="translate(254.3408,26.7327)"
      id="g130"><path
             id="path132"
             style="fill:#00813d;fill-opacity:1;fill-rule:nonzero;stroke:none"
             d="m 0,0 c 0.584,-0.973 1.5,-1.467 2.765,-1.467 1.12,0 1.641,0.51 1.641,1.1 0,0.415 -0.237,0.703 -0.599,0.926 C 3.602,0.702 3.159,0.894 2.859,0.974 2.59,1.085 1.959,1.292 1.643,1.42 c -1.722,0.638 -2.668,1.548 -2.668,3.223 0,0.957 0.346,1.722 1.057,2.281 0.711,0.574 1.579,0.861 2.606,0.861 1.595,0 2.81,-0.606 3.664,-1.819 L 4.674,4.722 C 4.233,5.297 3.569,5.584 2.701,5.584 1.896,5.584 1.375,5.201 1.375,4.674 1.375,4.307 1.469,4.084 1.8,3.877 1.976,3.781 2.148,3.701 2.29,3.638 L 3.08,3.366 C 3.443,3.239 3.759,3.127 4.027,3.016 6.032,2.25 6.838,1.308 6.838,-0.287 c 0,-2.058 -1.39,-3.399 -4.09,-3.399 -2.227,0 -3.773,1.006 -4.516,2.457 z m 1.69,8.376 0.805,2.312 H 5.038 L 3.458,8.376 Z" /></g><g
      transform="translate(273.9717,32.4446)"
      id="g134"><path
             id="path136"
             style="fill:#00813d;fill-opacity:1;fill-rule:nonzero;stroke:none"
             d="m 0,0 -1.658,-1.421 c -0.741,0.847 -1.674,1.262 -2.795,1.262 -0.98,0 -1.801,-0.335 -2.479,-1.005 -0.678,-0.671 -1.01,-1.5 -1.01,-2.506 0,-1.005 0.332,-1.835 0.993,-2.505 0.68,-0.653 1.502,-0.988 2.496,-0.988 1.138,0 2.068,0.431 2.811,1.275 l 1.659,-1.419 c -1.122,-1.324 -2.717,-2.089 -4.47,-2.089 -1.658,0 -3.048,0.542 -4.2,1.626 -1.153,1.1 -1.722,2.458 -1.722,4.1 0,1.644 0.569,2.999 1.722,4.1 1.152,1.101 2.542,1.643 4.2,1.643 C -2.7,2.073 -1.121,1.292 0,0" /></g><path
      id="path138"
      style="fill:#00813d;fill-opacity:1;fill-rule:nonzero;stroke:none"
      d="m 276.859,23.223 h 2.433 v 11.12 h -2.433 z"/></g></g>
    <g
      id="g140"><g
         clip-path="url(#clipPath146)"
         id="g142"><g
           transform="translate(284.8984,136.823)"
           id="g148"><path
             id="path150"
             style="fill:#ee3042;fill-opacity:1;fill-rule:nonzero;stroke:none"
             d="m 0,0 h -45.806 c -8.646,0 -15.66,-6.985 -15.706,-15.62 l -0.002,-0.002 v -24.333 h 45.805 c 8.676,0 15.709,7.034 15.709,15.709 v 0.019 z" /></g><g
      transform="translate(238.3281,113.8782)"
      id="g152"><path
             id="path154"
             style="fill:#ffffff;fill-opacity:1;fill-rule:nonzero;stroke:none"
             d="m 0,0 c 0.937,0.898 2.352,0.898 3.259,0 0.934,-0.898 0.934,-2.301 0,-3.199 C 2.352,-4.095 0.937,-4.095 0,-3.199 -0.905,-2.301 -0.905,-0.898 0,0" /></g><g
      transform="translate(255.1328,114.8044)"
      id="g156"><path
             id="path158"
             style="fill:#ffffff;fill-opacity:1;fill-rule:nonzero;stroke:none"
             d="M 0,0 C 0.71,0.7 1.051,1.542 1.051,2.525 1.051,3.506 0.71,4.348 0,5.021 -0.708,5.722 -1.558,6.059 -2.577,6.059 -3.626,6.059 -4.503,5.722 -5.24,5.021 -5.948,4.348 -6.316,3.506 -6.316,2.525 -6.316,1.542 -5.948,0.7 -5.24,0 c 0.737,-0.673 1.614,-1.01 2.663,-1.01 1.019,0 1.869,0.337 2.577,1.01 m -10.283,-9.958 v 19.55 h 4.222 v -1.85 c 0.424,1.235 2.096,2.103 4.25,2.103 2.01,0 3.709,-0.7 5.041,-2.132 C 4.59,6.31 5.271,4.573 5.271,2.525 5.271,0.476 4.59,-1.262 3.23,-2.694 1.898,-4.095 0.199,-4.797 -1.811,-4.797 c -2.154,0 -3.826,0.871 -4.25,2.103 v -7.264 z" /></g><path
      id="path160"
      style="fill:#ffffff;fill-opacity:1;fill-rule:nonzero;stroke:none"
      d="m 262.76,129.812 h 4.221 v -19.55 h -4.221 z"/></g></g></g></svg>
