<?xml version="1.0" encoding="UTF-8" standalone="no"?>
<svg
   xmlns:dc="http://purl.org/dc/elements/1.1/"
   xmlns:cc="http://creativecommons.org/ns#"
   xmlns:rdf="http://www.w3.org/1999/02/22-rdf-syntax-ns#"
   xmlns:svg="http://www.w3.org/2000/svg"
   xmlns="http://www.w3.org/2000/svg"
   viewBox="0 0 631.80402 161.86133"
   height="161.86133"
   width="631.80402"
   xml:space="preserve"
   id="svg2"
   version="1.1"><metadata
     id="metadata8"><rdf:RDF><cc:Work
         rdf:about=""><dc:format>image/svg+xml</dc:format><dc:type
           rdf:resource="http://purl.org/dc/dcmitype/StillImage" /></cc:Work></rdf:RDF></metadata><defs
     id="defs6"><clipPath
       id="clipPath22"
       clipPathUnits="userSpaceOnUse"><path
         id="path20"
         d="M 0,121.396 H 473.853 V 0 H 0 Z" /></clipPath><clipPath
       id="clipPath86"
       clipPathUnits="userSpaceOnUse"><path
         id="path84"
         d="m 378.418,120.028 h 61.171 V 68.3828 h -61.171 z" /></clipPath><clipPath
       id="clipPath102"
       clipPathUnits="userSpaceOnUse"><path
         id="path100"
         d="m 412.682,85.7155 h 61.171 V 34.0699 h -61.171 z" /></clipPath><clipPath
       id="clipPath118"
       clipPathUnits="userSpaceOnUse"><path
         id="path116"
         d="m 344.348,85.9584 h 61.171 V 34.3128 h -61.171 z" /></clipPath><clipPath
       id="clipPath134"
       clipPathUnits="userSpaceOnUse"><path
         id="path132"
         d="m 378.612,51.6456 h 61.171 V 0 h -61.171 z" /></clipPath></defs><g
     transform="matrix(1.3333333,0,0,-1.3333333,0,161.86133)"
     id="g10"><g
       transform="translate(132.6465,51.8336)"
       id="g12"><path
         id="path14"
         style="fill:#22823d;fill-opacity:1;fill-rule:nonzero;stroke:none"
         d="m 0,0 v 4.34 h -8.534 v 3.748 h 7.939 v 4.252 h -7.939 v 3.541 h 8.253 v 4.428 H -15.88 V 0 Z" /></g><g
       id="g16"><g
         clip-path="url(#clipPath22)"
         id="g18"><g
           transform="translate(158.6076,61.11)"
           id="g24"><path
             id="path26"
             style="fill:#22823d;fill-opacity:1;fill-rule:nonzero;stroke:none"
             d="M 0,0 V 11.032 H -7.441 V 0.178 c 0,-2.881 -1.249,-4.282 -3.906,-4.282 -2.657,0 -3.91,1.401 -3.91,4.282 v 10.854 h -7.438 V 0 c 0,-6.362 3.812,-9.634 11.348,-9.634 C -3.815,-9.634 0,-6.393 0,0" /></g><g
           transform="translate(175.1218,66.1667)"
           id="g28"><path
             id="path30"
             style="fill:#22823d;fill-opacity:1;fill-rule:nonzero;stroke:none"
             d="m 0,0 c 0,-1.813 -1.155,-2.35 -3.531,-2.35 h -1.407 v 4.73 h 1.53 C -1.093,2.38 0,1.725 0,0 m 9.408,-14.333 -3.156,6.781 c -0.625,1.366 -1.345,2.346 -2.502,2.942 2.22,0.953 3.315,2.468 3.315,4.58 0,4.134 -3.156,6.006 -9.596,6.006 h -9.787 v -20.309 h 7.38 v 8.503 h 1.03 c 1.844,0 2.595,-1.1 3.908,-3.955 l 2.095,-4.548 z" /></g><g
           transform="translate(201.5744,62.0032)"
           id="g32"><path
             id="path34"
             style="fill:#22823d;fill-opacity:1;fill-rule:nonzero;stroke:none"
             d="m 0,0 c 0,-2.647 -1.876,-4.52 -4.378,-4.52 -2.501,0 -4.376,1.873 -4.376,4.52 0,2.645 1.875,4.491 4.376,4.491 C -1.876,4.491 0,2.645 0,0 m 7.405,-0.03 c 0,3.004 -1.091,5.501 -3.374,7.526 -2.219,1.961 -5.093,2.972 -8.409,2.972 -3.312,0 -6.157,-1.011 -8.378,-2.972 -2.281,-2.025 -3.406,-4.522 -3.406,-7.526 0,-3.002 1.125,-5.472 3.406,-7.492 2.221,-1.963 5.066,-3.004 8.378,-3.004 3.316,0 6.19,1.041 8.409,3.004 2.283,2.02 3.374,4.49 3.374,7.492" /></g><g
           transform="translate(231.3422,53.2906)"
           id="g36"><path
             id="path38"
             style="fill:#22823d;fill-opacity:1;fill-rule:nonzero;stroke:none"
             d="M 0,0 -0.186,5.501 C -2.344,4.192 -4.439,3.537 -6.689,3.537 c -3.562,0 -5.877,2.083 -5.877,5.176 0,3.031 2.315,5.143 5.877,5.143 2.25,0 4.345,-0.623 6.503,-1.932 v 5.562 c -2.473,1.129 -4.911,1.694 -7.504,1.694 -3.655,0 -6.502,-0.923 -8.813,-2.973 -2.283,-2.023 -3.409,-4.52 -3.409,-7.524 0,-3.002 1.126,-5.471 3.409,-7.493 2.217,-1.963 5.062,-3.004 8.375,-3.004 C -5.127,-1.814 -2.5,-1.25 0,0" /></g><g
           transform="translate(249.3221,59.2079)"
           id="g40"><path
             id="path42"
             style="fill:#22823d;fill-opacity:1;fill-rule:nonzero;stroke:none"
             d="m 0,0 h -6.344 l 3.22,7.523 z M 10.474,-7.374 0.751,12.935 h -7.783 l -9.972,-20.309 h 7.471 l 1.5,3.478 h 9.66 l 1.438,-3.478 z" /></g><g
           transform="translate(276.1527,57.5728)"
           id="g44"><path
             id="path46"
             style="fill:#22823d;fill-opacity:1;fill-rule:nonzero;stroke:none"
             d="m 0,0 c 0,3.36 -2.158,4.55 -5.564,6.276 -1.814,0.921 -2.784,1.426 -2.784,2.377 0,0.802 0.656,1.31 1.938,1.31 1.877,0 3.535,-0.922 5.596,-2.619 v 5.354 c -2.061,1.516 -4.314,2.2 -6.973,2.2 -4.342,0 -7.408,-2.617 -7.408,-6.184 0,-2.561 1.597,-4.314 4.846,-6.099 1.813,-0.98 3.032,-1.426 3.032,-2.319 0,-0.922 -0.78,-1.397 -2.281,-1.397 -1.499,0 -3.408,0.713 -5.627,2.112 v -5.59 c 2.188,-1.012 4.346,-1.516 6.597,-1.516 C -3.002,-6.095 0,-3.837 0,0" /></g><g
           transform="translate(302.3625,51.8336)"
           id="g48"><path
             id="path50"
             style="fill:#22823d;fill-opacity:1;fill-rule:nonzero;stroke:none"
             d="m 0,0 v 20.309 h -7.472 v -7.434 h -7.658 v 7.434 h -7.471 V 0 h 7.471 v 7.524 h 7.658 l 0,-7.524 z" /></g><g
           transform="translate(269.1608,46.242)"
           id="g52"><path
             id="path54"
             style="fill:#e61c29;fill-opacity:1;fill-rule:nonzero;stroke:none"
             d="m 0,0 c -1.225,0 -2.142,-0.721 -2.34,-1.784 -0.187,-1.011 0.402,-1.723 1.447,-1.723 0.152,0 0.347,0.026 0.563,0.076 l 0.131,0.703 H -1.01 l 0.252,1.357 H 1.765 L 1.159,-4.63 c -0.869,-0.317 -1.72,-0.488 -2.585,-0.488 -0.874,0 -1.581,0.171 -2.137,0.523 -0.983,0.633 -1.396,1.61 -1.175,2.802 0.175,0.951 0.675,1.741 1.533,2.383 0.857,0.643 1.841,0.943 2.993,0.943 0.847,0 1.652,-0.181 2.45,-0.54 l -0.28,-1.51 C 1.276,-0.173 0.622,0 0,0" /></g><g
           transform="translate(275.2878,46.531)"
           id="g56"><path
             id="path58"
             style="fill:#e61c29;fill-opacity:1;fill-rule:nonzero;stroke:none"
             d="m 0,0 h -0.488 l -0.278,-1.5 h 0.451 c 0.749,0 1.15,0.172 1.256,0.748 C 1.042,-0.211 0.737,0 0,0 M 0.766,-5.295 0.364,-3.858 C 0.12,-2.949 -0.06,-2.607 -0.637,-2.607 H -0.971 L -1.47,-5.295 h -2.334 l 1.194,6.436 h 3.099 c 2.037,0 2.926,-0.6 2.685,-1.903 C 3.049,-1.431 2.618,-1.91 1.858,-2.221 2.193,-2.407 2.352,-2.716 2.48,-3.146 l 0.601,-2.149 z" /></g><g
           transform="translate(282.4393,41.1234)"
           id="g60"><path
             id="path62"
             style="fill:#e61c29;fill-opacity:1;fill-rule:nonzero;stroke:none"
             d="m 0,0 c -2.379,0 -3.393,1.037 -3.02,3.052 l 0.648,3.496 h 2.35 L -0.66,3.102 c -0.166,-0.907 0.147,-1.354 0.984,-1.354 0.848,0 1.327,0.447 1.495,1.354 L 2.457,6.548 H 4.809 L 4.161,3.052 C 3.785,1.028 2.389,0 0,0" /></g><g
           transform="translate(291.156,46.4896)"
           id="g64"><path
             id="path66"
             style="fill:#e61c29;fill-opacity:1;fill-rule:nonzero;stroke:none"
             d="m 0,0 h -0.497 l -0.322,-1.749 h 0.459 c 0.773,0 1.184,0.266 1.299,0.883 C 1.055,-0.241 0.748,0 0,0 M -0.252,-2.959 H -1.043 L -1.47,-5.254 h -2.334 l 1.194,6.437 h 3.101 c 2.026,0 2.91,-0.67 2.659,-2.024 -0.256,-1.38 -1.4,-2.118 -3.402,-2.118" /></g><g
           transform="translate(298.9312,45.9579)"
           id="g68"><path
             id="path70"
             style="fill:#e61c29;fill-opacity:1;fill-rule:nonzero;stroke:none"
             d="M 0,0 -1.467,-2.384 H 0.55 Z M 1.082,-4.723 0.834,-3.618 H -2.228 L -2.91,-4.723 h -2.362 l 4.347,6.438 h 2.469 l 1.887,-6.438 z" /></g><g
           transform="translate(40.6174,61.4953)"
           id="g72"><path
             id="path74"
             style="fill:#e61c29;fill-opacity:1;fill-rule:nonzero;stroke:none"
             d="m 0,0 c 0,-8.992 13.149,-14.25 13.149,-14.25 0,0 10.771,-5.118 28.973,-4.288 -18.276,2.352 -24.591,8.301 -24.591,8.301 0,0 -6.165,3.873 -6.091,10.237 0.074,6.362 6.091,10.307 6.091,10.307 0,0 6.337,6.089 24.591,8.508 C 23.802,19.512 13.149,14.319 13.149,14.319 13.149,14.319 0,8.992 0,0" /></g><g
           transform="translate(66.396,60.4505)"
           id="g76"><path
             id="path78"
             style="fill:#e61c29;fill-opacity:1;fill-rule:nonzero;stroke:none"
             d="M 0,0 C -3.3,0.433 -5.517,0.948 -6.796,1.385 L -6.81,1.158 c 0,-5.728 5.479,-10.677 13.355,-12.944 l 0.14,0.162 C 2.914,-8.967 0.36,-4.776 0,0 M 6.583,13.87 6.43,14.069 C -0.558,12.03 -5.623,7.871 -6.62,2.937 -5.842,2.653 -3.875,2.051 -0.036,1.532 0.087,6.59 2.665,11.064 6.583,13.87 m 3.275,-25.56 c 1.097,-0.514 2.265,-0.902 3.489,-1.141 -0.328,0.464 -0.63,1.007 -0.905,1.61 -1.092,-0.118 -1.935,-0.286 -2.584,-0.469 M 1.561,1.335 c 2.32,-0.263 5.198,-0.489 8.748,-0.617 -0.002,0.147 -0.008,0.295 -0.008,0.44 0,3.809 0.514,7.733 1.499,10.716 C 9.989,12.112 8.752,12.491 7.915,12.903 4.128,10.36 1.621,6.132 1.561,1.335 m 30.763,-1.814 c -0.489,-4.588 -3.005,-8.595 -6.663,-11.163 l 0.133,-0.145 c 7.523,2.157 12.865,6.753 13.347,12.146 -1.389,-0.34 -3.727,-0.624 -6.817,-0.838 M 14.141,-11.091 c 0.673,-1.302 1.404,-2.011 2.044,-2.011 0.64,0 1.368,0.703 2.039,2.001 -0.648,0.033 -1.356,0.052 -2.14,0.052 -0.704,0 -1.352,-0.015 -1.943,-0.042 m 4.884,-1.74 c 1.211,0.235 2.365,0.619 3.449,1.124 -0.644,0.183 -1.48,0.351 -2.552,0.469 -0.273,-0.599 -0.574,-1.134 -0.897,-1.593 m -5.678,27.979 c -1.32,-0.253 -2.572,-0.687 -3.74,-1.263 0.662,-0.211 1.555,-0.406 2.748,-0.544 0.299,0.684 0.629,1.294 0.992,1.807 M 11.914,0.669 C 13.429,0.63 15.056,0.607 16.8,0.607 c 1.29,0 2.505,0.009 3.656,0.021 0.003,0.179 0.009,0.349 0.009,0.53 0,4.48 -0.64,8.078 -1.505,10.542 -0.802,-0.054 -1.685,-0.085 -2.673,-0.085 -1.066,0 -2.017,0.034 -2.873,0.096 -0.864,-2.463 -1.51,-6.065 -1.51,-10.553 0,-0.167 0.009,-0.325 0.01,-0.489 m 18.78,-1.25 c -2.513,-0.143 -5.432,-0.242 -8.673,-0.295 -0.152,-3.231 -0.668,-6.41 -1.522,-8.898 1.717,-0.22 2.919,-0.566 3.762,-0.946 3.471,2.253 5.902,5.912 6.433,10.139 m -8.625,1.739 c 0,-0.17 -0.005,-0.34 -0.006,-0.511 3.572,0.056 6.443,0.17 8.742,0.306 l 0.011,0.205 c 0,4.857 -2.508,9.143 -6.323,11.72 -0.838,-0.414 -2.079,-0.795 -3.913,-1.025 0.979,-2.982 1.489,-6.896 1.489,-10.695 m 10.35,0 -0.004,-0.1 C 36.572,1.359 38.452,1.73 39.137,1.9 38.691,7.279 33.426,11.88 25.963,14.063 L 25.81,13.854 C 29.812,10.977 32.419,6.361 32.419,1.158 M 10.348,-0.803 c -3.425,0.124 -6.319,0.341 -8.724,0.607 0.424,-4.371 2.888,-8.176 6.448,-10.498 0.845,0.384 2.055,0.73 3.793,0.941 -0.854,2.503 -1.369,5.703 -1.517,8.95 m 7.998,13.994 c -0.707,1.446 -1.485,2.23 -2.161,2.23 -0.675,0 -1.453,-0.78 -2.156,-2.221 0.68,-0.038 1.427,-0.061 2.258,-0.061 0.753,0 1.437,0.019 2.059,0.052 m 4.453,0.674 c -1.175,0.585 -2.441,1.026 -3.773,1.283 0.364,-0.517 0.698,-1.132 0.999,-1.826 1.212,0.136 2.111,0.334 2.774,0.543 M 16.8,-0.915 c -1.715,0 -3.325,0.021 -4.845,0.06 0.165,-3.68 0.773,-6.65 1.542,-8.748 0.778,0.049 1.635,0.078 2.587,0.078 1.03,0 1.954,-0.034 2.787,-0.09 0.766,2.091 1.375,5.049 1.543,8.718 -1.169,-0.012 -2.373,-0.018 -3.614,-0.018" /></g><g
           id="g80"><g
             id="g82" /><g
             id="g94"><g
               style="opacity:0.19999701"
               id="g92"
               clip-path="url(#clipPath86)"><g
                 id="g90"
                 transform="translate(417.1338,71.7502)"><path
                   id="path88"
                   style="fill:#231f20;fill-opacity:1;fill-rule:nonzero;stroke:none"
                   d="m 0,0 c -4.49,-4.49 -11.77,-4.49 -16.261,0 l -22.455,22.455 22.455,22.455 c 4.491,4.491 11.771,4.491 16.261,0 L 22.455,22.455 Z" /></g></g></g></g><g
           id="g96"><g
             id="g98" /><g
             id="g110"><g
               style="opacity:0.19999701"
               id="g108"
               clip-path="url(#clipPath102)"><g
                 id="g106"
                 transform="translate(451.3977,37.4374)"><path
                   id="path104"
                   style="fill:#231f20;fill-opacity:1;fill-rule:nonzero;stroke:none"
                   d="m 0,0 c -4.49,-4.49 -11.77,-4.49 -16.261,0 l -22.455,22.455 22.455,22.455 c 4.491,4.491 11.771,4.491 16.261,0 L 22.455,22.455 Z" /></g></g></g></g><g
           id="g112"><g
             id="g114" /><g
             id="g126"><g
               style="opacity:0.19999701"
               id="g124"
               clip-path="url(#clipPath118)"><g
                 id="g122"
                 transform="translate(383.0641,37.6803)"><path
                   id="path120"
                   style="fill:#231f20;fill-opacity:1;fill-rule:nonzero;stroke:none"
                   d="m 0,0 c -4.49,-4.49 -11.77,-4.49 -16.261,0 l -22.455,22.455 22.455,22.455 c 4.491,4.491 11.771,4.491 16.261,0 L 22.455,22.455 Z" /></g></g></g></g><g
           id="g128"><g
             id="g130" /><g
             id="g142"><g
               style="opacity:0.19999701"
               id="g140"
               clip-path="url(#clipPath134)"><g
                 id="g138"
                 transform="translate(417.328,3.3675)"><path
                   id="path136"
                   style="fill:#231f20;fill-opacity:1;fill-rule:nonzero;stroke:none"
                   d="m 0,0 c -4.49,-4.49 -11.77,-4.49 -16.261,0 l -22.455,22.455 22.455,22.455 c 4.491,4.491 11.771,4.491 16.261,0 L 22.455,22.455 Z" /></g></g></g></g><g
           transform="translate(415.7658,73.1182)"
           id="g144"><path
             id="path146"
             style="fill:#2d9e42;fill-opacity:1;fill-rule:nonzero;stroke:none"
             d="m 0,0 c -4.49,-4.49 -11.77,-4.49 -16.261,0 l -22.455,22.455 22.455,22.455 c 4.491,4.491 11.771,4.491 16.261,0 L 22.455,22.455 Z" /></g><g
           transform="translate(414.7384,117.001)"
           id="g148"><path
             id="path150"
             style="fill:#22823d;fill-opacity:1;fill-rule:nonzero;stroke:none"
             d="m 0,0 c -1.897,1.897 -4.42,2.942 -7.103,2.942 -2.683,0 -5.205,-1.045 -7.103,-2.942 l -21.427,-21.428 21.427,-21.427 c 1.898,-1.897 4.42,-2.942 7.103,-2.942 2.683,0 5.206,1.045 7.103,2.942 l 21.427,21.427 z" /></g><g
           transform="translate(414.5028,91.6898)"
           id="g152"><path
             id="path154"
             style="fill:#ffffff;fill-opacity:1;fill-rule:nonzero;stroke:none"
             d="M 0,0 -0.166,-0.2 -3.601,3.468 C -3.863,3.747 -4.301,3.762 -4.581,3.5 -4.86,3.238 -4.874,2.8 -4.613,2.52 l 3.964,-4.233 c 0.123,-0.136 0.181,-0.301 0.182,-0.471 -0.001,-0.182 -0.068,-0.358 -0.206,-0.496 -0.139,-0.139 -0.314,-0.205 -0.493,-0.206 -0.092,0 -0.183,0.017 -0.267,0.051 -0.085,0.035 -0.163,0.085 -0.232,0.155 l -2.077,2.077 -0.028,0.027 c -0.27,0.271 -0.709,0.271 -0.98,0 -0.271,-0.271 -0.271,-0.709 0,-0.98 l 2.104,-2.105 h 10e-4 l 0.326,-0.327 c 0.066,-0.065 0.113,-0.138 0.145,-0.217 0.032,-0.078 0.048,-0.163 0.048,-0.248 0,-0.084 -0.016,-0.169 -0.048,-0.247 -0.032,-0.079 -0.079,-0.152 -0.144,-0.217 H -2.319 C -2.384,-4.983 -2.457,-5.03 -2.536,-5.062 -2.614,-5.094 -2.699,-5.11 -2.783,-5.11 c -0.085,0 -0.17,0.016 -0.248,0.048 -0.079,0.032 -0.152,0.079 -0.217,0.145 l -2.517,2.516 c -0.271,0.271 -0.71,0.271 -0.98,0 -0.271,-0.27 -0.271,-0.709 0,-0.98 l 1.696,-1.696 c 0.067,-0.068 0.116,-0.143 0.149,-0.225 0.033,-0.081 0.05,-0.169 0.05,-0.256 0,-0.088 -0.017,-0.176 -0.05,-0.257 -0.033,-0.082 -0.082,-0.157 -0.149,-0.225 -0.135,-0.134 -0.306,-0.199 -0.482,-0.2 -0.169,0.001 -0.332,0.06 -0.465,0.184 l -2.382,2.222 c -0.28,0.261 -0.718,0.246 -0.979,-0.034 -0.262,-0.279 -0.246,-0.718 0.033,-0.979 l 1.738,-1.621 c 0.054,-0.051 0.093,-0.108 0.119,-0.17 0.027,-0.062 0.04,-0.13 0.04,-0.197 0,-0.065 -0.012,-0.129 -0.036,-0.189 -0.025,-0.06 -0.06,-0.115 -0.111,-0.166 -0.099,-0.098 -0.224,-0.146 -0.355,-0.147 -0.117,10e-4 -0.231,0.039 -0.326,0.121 l -3.455,2.967 c -1.258,1.081 -2.27,2.42 -2.967,3.925 l -0.7,1.512 3.585,3.584 -0.221,-2.656 c -0.003,-0.044 -0.005,-0.087 -0.005,-0.13 0,-0.426 0.176,-0.817 0.455,-1.094 0.277,-0.278 0.667,-0.453 1.092,-0.453 0.031,0 0.062,0.003 0.093,0.005 0.028,0 0.044,0.001 0.073,0.004 v 0 0 c 1.406,0.15 2.603,1.087 3.085,2.416 l 0.712,1.963 2.479,-0.132 c 0.382,-0.021 0.708,0.273 0.728,0.655 0.021,0.382 -0.273,0.708 -0.655,0.729 L -6.947,6.238 C -7.253,6.254 -7.531,6.07 -7.636,5.782 L -8.523,3.337 C -8.824,2.506 -9.573,1.92 -10.452,1.826 l -0.019,-0.001 c -0.044,0 -0.081,0.017 -0.113,0.048 -0.031,0.032 -0.048,0.068 -0.048,0.113 l 10e-4,0.015 0.367,4.428 c 0.025,0.086 0.032,0.176 0.022,0.265 l 0.015,0.176 c 0.043,0.526 0.422,0.964 0.936,1.082 L -4.768,8.996 1.473,2.755 1.213,2.074 C 0.925,1.321 0.515,0.62 0,0 m -12.667,11.225 2.26,-2.259 C -11.082,8.538 -11.54,7.813 -11.609,6.985 L -11.615,6.91 -16.209,2.316 -18.892,5 Z m 11.224,0.66 5.85,-5.85 L 2.28,3.908 -3.57,9.758 Z M 6.08,6.035 c 0,0.182 -0.073,0.361 -0.202,0.49 l -6.831,6.83 c -0.129,0.129 -0.307,0.203 -0.49,0.203 -0.182,0 -0.361,-0.074 -0.49,-0.203 l -2.966,-2.967 -4.038,-0.932 -3.24,3.239 c -0.129,0.13 -0.307,0.203 -0.49,0.203 -0.182,0 -0.361,-0.073 -0.49,-0.203 L -20.363,5.49 c -0.27,-0.271 -0.27,-0.71 0,-0.98 l 3.577,-3.577 0.851,-1.839 c 0.78,-1.685 1.913,-3.184 3.322,-4.394 l 3.454,-2.967 c 0.354,-0.304 0.795,-0.456 1.23,-0.456 0.483,0 0.969,0.187 1.335,0.553 v 0 c 0.184,0.183 0.323,0.398 0.415,0.625 0.003,0.008 0.005,0.015 0.008,0.023 0.208,-0.068 0.424,-0.104 0.64,-0.104 0.527,0 1.06,0.204 1.462,0.606 v 0 c 0.2,0.2 0.353,0.435 0.454,0.684 0.002,0.005 0.003,0.011 0.005,0.016 0.02,-0.008 0.038,-0.019 0.058,-0.026 0.246,-0.1 0.508,-0.15 0.769,-0.15 0.26,0 0.522,0.05 0.768,0.15 0.247,0.099 0.478,0.25 0.677,0.448 v 0 c 0.198,0.199 0.349,0.43 0.448,0.677 0.1,0.246 0.15,0.508 0.15,0.768 0,0.075 -0.005,0.149 -0.013,0.223 0.389,0.079 0.761,0.27 1.06,0.57 v 0 0 c 0.406,0.405 0.613,0.943 0.612,1.476 0,0.301 -0.067,0.603 -0.197,0.884 l 0.344,0.414 c 0.613,0.737 1.1,1.57 1.442,2.466 L 2.875,2.542 5.878,5.545 C 6.007,5.674 6.08,5.852 6.08,6.035" /></g><g
           transform="translate(450.0297,38.8054)"
           id="g156"><path
             id="path158"
             style="fill:#ee223d;fill-opacity:1;fill-rule:nonzero;stroke:none"
             d="m 0,0 c -4.49,-4.49 -11.77,-4.49 -16.261,0 l -22.455,22.455 22.455,22.456 c 4.491,4.49 11.771,4.49 16.261,0 L 22.455,22.455 Z" /></g><g
           transform="translate(449.0021,82.6885)"
           id="g160"><path
             id="path162"
             style="fill:#e61c29;fill-opacity:1;fill-rule:nonzero;stroke:none"
             d="m 0,0 c -1.897,1.897 -4.42,2.942 -7.103,2.942 -2.683,0 -5.205,-1.045 -7.103,-2.942 l -21.427,-21.428 21.427,-21.427 c 1.898,-1.897 4.42,-2.942 7.103,-2.942 2.683,0 5.206,1.045 7.103,2.942 l 21.428,21.427 z" /></g><g
           transform="translate(425.9269,60.8748)"
           id="g164"><path
             id="path166"
             style="fill:#ffffff;fill-opacity:1;fill-rule:nonzero;stroke:none"
             d="m 0,0 h -0.892 c -0.383,0 -0.694,-0.311 -0.694,-0.695 0,-0.383 0.311,-0.694 0.694,-0.694 H 0 c 0.384,0 0.695,0.311 0.695,0.694 C 0.695,-0.311 0.384,0 0,0 m 2.956,3.955 c 0,0.383 -0.311,0.694 -0.694,0.694 H 1.37 C 0.986,4.649 0.675,4.338 0.675,3.955 0.675,3.571 0.986,3.26 1.37,3.26 h 0.892 c 0.383,0 0.694,0.311 0.694,0.695 M 4.903,3.26 h 1.034 10e-4 v 0 h 9.091 c 0.383,0 0.694,0.311 0.694,0.695 0,0.383 -0.311,0.694 -0.694,0.694 H 6.632 v 2.739 c 0.001,0.364 0.145,0.687 0.382,0.925 0.239,0.238 0.56,0.382 0.924,0.383 H 19.61 V -2.148 c 0,-0.384 0.311,-0.695 0.695,-0.695 0.384,0 0.695,0.311 0.695,0.695 v 0 11.538 c 0,0.183 -0.075,0.362 -0.204,0.492 -0.129,0.129 -0.308,0.203 -0.491,0.203 H 7.938 C 7.195,10.085 6.517,9.782 6.031,9.295 5.545,8.809 5.243,8.13 5.243,7.388 V 4.649 H 4.903 C 4.52,4.649 4.209,4.338 4.209,3.955 4.209,3.571 4.52,3.26 4.903,3.26 M 30.067,0.638 26.578,6.549 C 26.453,6.761 26.226,6.891 25.98,6.891 h -3.049 c -0.383,0 -0.694,-0.311 -0.694,-0.695 0,-0.383 0.311,-0.694 0.694,-0.694 h 2.652 l 3.191,-5.406 v -4.449 c -0.001,-0.267 -0.106,-0.502 -0.281,-0.678 -0.175,-0.174 -0.409,-0.28 -0.674,-0.28 h -0.83 c -0.377,0 -0.684,-0.3 -0.694,-0.677 -0.014,-0.54 -0.237,-1.023 -0.589,-1.374 -0.353,-0.35 -0.824,-0.561 -1.349,-0.562 -0.524,0.001 -0.996,0.212 -1.349,0.562 -0.353,0.351 -0.576,0.834 -0.59,1.374 -0.009,0.377 -0.317,0.677 -0.694,0.677 h -8.108 c -0.377,0 -0.684,-0.299 -0.694,-0.676 -0.014,-0.541 -0.238,-1.024 -0.59,-1.375 -0.354,-0.35 -0.825,-0.561 -1.35,-0.562 -0.525,0.001 -0.996,0.212 -1.35,0.562 -0.352,0.351 -0.575,0.834 -0.588,1.374 -0.01,0.377 -0.318,0.677 -0.695,0.677 H 6.632 v 3.922 h 6.135 c 0.384,0 0.695,0.311 0.695,0.694 C 13.462,-0.311 13.151,0 12.767,0 H 2.642 C 2.258,0 1.947,-0.311 1.947,-0.695 c 0,-0.383 0.311,-0.694 0.695,-0.694 h 2.601 v -4.617 c 0,-0.183 0.074,-0.362 0.203,-0.491 C 5.576,-6.626 5.755,-6.7 5.938,-6.7 H 7.74 c 0.146,-0.636 0.468,-1.205 0.912,-1.647 0.597,-0.594 1.423,-0.967 2.33,-0.966 0.907,-10e-4 1.733,0.372 2.33,0.966 0.444,0.442 0.767,1.011 0.913,1.647 h 6.89 c 0.146,-0.636 0.468,-1.205 0.913,-1.647 0.596,-0.594 1.423,-0.966 2.329,-0.966 0.906,-10e-4 1.733,0.372 2.329,0.966 0.445,0.442 0.767,1.011 0.912,1.647 h 0.221 c 1.296,0 2.343,1.052 2.344,2.347 v 4.638 c 0,0.125 -0.033,0.246 -0.096,0.353" /></g><g
           transform="translate(381.696,39.0484)"
           id="g168"><path
             id="path170"
             style="fill:#f2581a;fill-opacity:1;fill-rule:nonzero;stroke:none"
             d="m 0,0 c -4.49,-4.49 -11.771,-4.49 -16.261,0 l -22.455,22.455 22.455,22.455 c 4.491,4.491 11.771,4.491 16.261,0 L 22.455,22.455 Z" /></g><g
           transform="translate(380.6683,82.931)"
           id="g172"><path
             id="path174"
             style="fill:#f1471d;fill-opacity:1;fill-rule:nonzero;stroke:none"
             d="m 0,0 c -1.897,1.897 -4.42,2.942 -7.103,2.942 -2.683,0 -5.205,-1.045 -7.103,-2.942 l -21.427,-21.427 21.428,-21.428 c 1.897,-1.897 4.419,-2.942 7.102,-2.942 2.683,0 5.206,1.045 7.103,2.942 l 21.428,21.428 z" /></g><g
           transform="translate(381.0937,57.7581)"
           id="g176"><path
             id="path178"
             style="fill:#ffffff;fill-opacity:1;fill-rule:nonzero;stroke:none"
             d="M 0,0 -0.624,1.264 -1.248,0 c -0.101,-0.204 -0.295,-0.346 -0.521,-0.378 l -1.395,-0.203 1.009,-0.985 c 0.164,-0.158 0.238,-0.387 0.199,-0.612 l -0.238,-1.39 1.248,0.657 c 0.101,0.053 0.212,0.079 0.322,0.079 0.111,0 0.221,-0.026 0.322,-0.079 l 1.248,-0.657 -0.238,1.39 c -0.038,0.225 0.036,0.454 0.199,0.612 l 1.01,0.985 -1.396,0.203 C 0.295,-0.346 0.101,-0.204 0,0 M 2.547,-4.716 C 2.592,-4.975 2.485,-5.237 2.272,-5.392 2.059,-5.547 1.776,-5.568 1.543,-5.445 l -2.167,1.139 -2.167,-1.139 c -0.101,-0.053 -0.212,-0.08 -0.322,-0.08 -0.143,0 -0.287,0.045 -0.407,0.133 -0.213,0.155 -0.32,0.417 -0.275,0.676 l 0.414,2.413 -1.753,1.709 c -0.189,0.184 -0.257,0.459 -0.176,0.71 0.082,0.25 0.298,0.433 0.559,0.471 l 2.423,0.352 1.084,2.195 c 0.116,0.236 0.357,0.386 0.62,0.386 0.264,0 0.504,-0.15 0.621,-0.386 L 1.08,0.939 3.503,0.587 C 3.764,0.549 3.98,0.366 4.062,0.116 4.143,-0.135 4.075,-0.41 3.887,-0.593 l -1.754,-1.71 z m -8.591,-0.886 h -9.618 c -0.382,0 -0.692,0.309 -0.692,0.692 v 7.73 c 0,0.383 0.31,0.692 0.692,0.692 0.383,0 0.692,-0.309 0.692,-0.692 v -7.038 h 5.106 v 3.046 h -1.589 c -0.382,0 -0.692,0.31 -0.692,0.691 0,0.383 0.31,0.693 0.692,0.693 h 1.589 V 2.82 c 0,0.383 0.31,0.692 0.692,0.692 0.382,0 0.693,-0.309 0.693,-0.692 v -7.038 h 2.435 c 0.383,0 0.692,-0.31 0.692,-0.692 0,-0.383 -0.309,-0.692 -0.692,-0.692 M -19.147,7.666 v 1.257 c 0,0.004 0.002,0.009 0.002,0.014 0,0.014 0.003,0.028 0.004,0.042 0.004,0.043 0.01,0.084 0.021,0.125 0.005,0.015 0.009,0.031 0.015,0.046 0.016,0.045 0.035,0.088 0.06,0.128 0.003,0.006 0.005,0.013 0.008,0.019 l 2.656,4.124 c 0.127,0.198 0.346,0.318 0.582,0.318 H 0.664 c 0.235,0 0.454,-0.12 0.582,-0.318 L 3.871,9.344 C 3.879,9.333 3.885,9.321 3.893,9.31 V 9.309 C 3.968,9.198 4.014,9.066 4.014,8.923 4.014,8.915 4.012,8.907 4.011,8.9 V 7.666 C 4.011,6.093 2.732,4.814 1.159,4.814 h -2.938 c -0.863,0 -1.636,0.387 -2.16,0.995 -0.523,-0.608 -1.297,-0.995 -2.16,-0.995 h -2.938 c -0.863,0 -1.636,0.387 -2.16,0.995 -0.523,-0.608 -1.296,-0.995 -2.16,-0.995 h -2.937 c -1.573,0 -2.853,1.279 -2.853,2.852 m 5.79,-1.468 c 0.81,0 1.468,0.658 1.468,1.468 V 8.23 h -5.874 V 7.666 c 0,-0.81 0.659,-1.468 1.469,-1.468 z m 2.852,1.468 c 0,-0.81 0.659,-1.468 1.468,-1.468 h 2.938 c 0.809,0 1.468,0.658 1.468,1.468 V 8.23 h -5.874 z m 7.258,0 c 0,-0.81 0.659,-1.468 1.468,-1.468 h 2.938 c 0.81,0 1.468,0.658 1.468,1.468 V 8.23 h -5.874 z m 3.533,4.688 H -15.421 L -17.186,9.615 H 2.05 Z" /></g><g
           transform="translate(415.9595,4.7847)"
           id="g180"><path
             id="path182"
             style="fill:#7ccd48;fill-opacity:1;fill-rule:nonzero;stroke:none"
             d="m 0,0 c -4.49,-4.49 -11.77,-4.49 -16.261,0 l -22.455,22.455 22.455,22.455 c 4.491,4.491 11.771,4.491 16.261,0 L 22.455,22.455 Z" /></g><g
           transform="translate(414.9319,48.6676)"
           id="g184"><path
             id="path186"
             style="fill:#5fbc33;fill-opacity:1;fill-rule:nonzero;stroke:none"
             d="m 0,0 c -1.897,1.897 -4.42,2.942 -7.103,2.942 -2.683,0 -5.205,-1.045 -7.102,-2.942 l -21.428,-21.428 21.427,-21.427 c 1.898,-1.897 4.42,-2.942 7.103,-2.942 2.683,0 5.206,1.045 7.103,2.942 l 21.428,21.427 z" /></g><g
           transform="translate(418.7218,25.2319)"
           id="g188"><path
             id="path190"
             style="fill:#ffffff;fill-opacity:1;fill-rule:nonzero;stroke:none"
             d="m 0,0 c 0,0.145 0,0.28 0,0.407 0,0.511 0,0.889 -0.001,1.173 0,0.733 -0.258,1.416 -0.732,1.908 -0.471,0.495 -1.143,0.783 -1.879,0.812 l -0.03,0.001 h -1.239 c -0.384,0 -0.695,-0.311 -0.695,-0.695 0,-0.384 0.311,-0.695 0.695,-0.695 h 1.215 C -2.244,2.89 -1.946,2.744 -1.736,2.527 -1.528,2.307 -1.393,2 -1.39,1.576 c 10e-4,-0.281 10e-4,-0.658 10e-4,-1.169 0,-0.127 0,-0.263 0,-0.407 0,-0.306 0,-0.652 0,-1.044 v 0 0 0 C -1.39,-1.264 -1.474,-1.456 -1.616,-1.603 -1.758,-1.749 -1.95,-1.841 -2.169,-1.849 -2.523,-1.862 -2.811,-2.142 -2.836,-2.496 l -0.252,-3.662 h -1.836 l -0.172,2.531 c -0.026,0.382 -0.357,0.672 -0.74,0.646 -0.383,-0.026 -0.672,-0.358 -0.646,-0.74 v 0 L -6.267,-6.9 c 0.025,-0.363 0.329,-0.647 0.693,-0.647 h 3.134 c 0.365,0 0.668,0.283 0.693,0.647 l 0.261,3.779 c 0.332,0.114 0.629,0.304 0.868,0.55 0.367,0.378 0.599,0.896 0.615,1.462 0,0 0,0.002 0,0.002 C 0,-1.076 0,-1.058 0,-1.045 v 10e-4 0 0.001 C 0,-0.652 0,-0.306 0,0 m -5.281,7.735 c 10e-4,0.374 0.141,0.69 0.362,0.919 0.224,0.228 0.524,0.366 0.88,0.37 h 0.009 c 0.355,0 0.678,-0.144 0.917,-0.379 0.237,-0.236 0.38,-0.552 0.38,-0.897 V 7.745 C -2.735,7.383 -2.875,7.073 -3.103,6.843 -3.333,6.615 -3.644,6.475 -4.006,6.474 h 0.007 -0.01 C -4.388,6.475 -4.695,6.613 -4.918,6.832 -5.139,7.053 -5.277,7.354 -5.281,7.728 V 7.731 Z M -6.67,7.722 V 7.72 7.712 h 0.001 c 0.004,-0.727 0.293,-1.394 0.774,-1.868 0.481,-0.478 1.154,-0.761 1.886,-0.76 v 0 0 h 0.006 c 0.732,0.001 1.402,0.296 1.882,0.776 0.48,0.479 0.776,1.149 0.777,1.881 v 0.002 0.007 0 c 0,0.735 -0.308,1.404 -0.792,1.882 -0.485,0.48 -1.157,0.781 -1.894,0.781 H -4.044 -4.049 C -4.778,10.409 -5.443,10.108 -5.914,9.623 -6.387,9.138 -6.671,8.466 -6.67,7.735 Z m -9.193,-10.703 c -0.383,0.026 -0.714,-0.264 -0.74,-0.646 l -0.172,-2.531 h -1.836 l -0.252,3.662 c -0.025,0.354 -0.314,0.634 -0.668,0.647 -0.218,0.008 -0.41,0.1 -0.552,0.246 -0.142,0.147 -0.227,0.339 -0.227,0.559 v 0 c 0,0.312 0,0.594 0,0.851 0,0.239 0,0.456 0,0.653 0,0.484 0,0.845 10e-4,1.116 0.003,0.424 0.138,0.731 0.346,0.951 0.21,0.217 0.508,0.363 0.93,0.384 h 1.215 c 0.384,0 0.695,0.311 0.695,0.695 0,0.384 -0.311,0.695 -0.695,0.695 h -1.24 L -19.087,4.3 c -0.736,-0.029 -1.408,-0.317 -1.879,-0.812 -0.474,-0.493 -0.732,-1.175 -0.732,-1.908 -0.001,-0.274 -0.001,-0.635 -0.001,-1.12 0,-0.196 0,-0.413 0,-0.653 0,-0.257 0,-0.539 0,-0.85 v -0.001 c -10e-4,-0.591 0.237,-1.134 0.618,-1.527 0.238,-0.246 0.536,-0.436 0.868,-0.55 l 0.261,-3.779 c 0.025,-0.364 0.328,-0.647 0.693,-0.647 h 3.134 c 0.364,0 0.668,0.284 0.693,0.647 l 0.215,3.179 c 0.026,0.382 -0.264,0.714 -0.646,0.74 m -3.103,10.729 v 0 c 0,0.345 0.142,0.661 0.38,0.897 0.239,0.235 0.562,0.379 0.917,0.379 h 0.009 c 0.356,-0.004 0.656,-0.142 0.879,-0.37 0.222,-0.229 0.362,-0.545 0.362,-0.919 V 7.728 c -0.003,-0.374 -0.141,-0.675 -0.362,-0.896 -0.223,-0.219 -0.531,-0.357 -0.91,-0.358 h -0.002 c -0.362,10e-4 -0.673,0.141 -0.903,0.369 -0.228,0.23 -0.368,0.54 -0.37,0.902 z m -1.389,-0.007 c 0,-10e-4 0,-10e-4 0,-0.002 V 7.716 h 0.001 c 0.008,-0.722 0.301,-1.382 0.776,-1.856 0.48,-0.48 1.15,-0.775 1.882,-0.776 h 0.005 c 0.732,-10e-4 1.406,0.282 1.887,0.76 0.483,0.476 0.773,1.147 0.775,1.878 v 0.013 c 0,0.731 -0.283,1.403 -0.756,1.888 -0.471,0.485 -1.136,0.786 -1.865,0.79 h -0.005 -0.014 c -0.737,0 -1.41,-0.301 -1.894,-0.781 -0.485,-0.478 -0.792,-1.148 -0.792,-1.884 v 0 0 z M -7.146,-0.051 C -7.147,-0.402 -7.282,-0.713 -7.507,-0.948 -7.733,-1.182 -8.042,-1.332 -8.39,-1.349 -8.746,-1.366 -9.029,-1.648 -9.049,-2.004 l -0.36,-6.449 h -2.914 l -0.36,6.449 c -0.019,0.356 -0.303,0.638 -0.659,0.655 -0.348,0.017 -0.657,0.167 -0.883,0.401 -0.224,0.235 -0.36,0.546 -0.361,0.897 v 2.958 c 0.025,0.618 0.246,1.085 0.591,1.421 0.348,0.333 0.836,0.543 1.459,0.555 h 3.34 c 0.623,-0.012 1.111,-0.222 1.459,-0.555 0.345,-0.336 0.566,-0.803 0.591,-1.421 z m 1.389,2.979 v 0.024 c -0.031,0.94 -0.398,1.783 -1.017,2.376 -0.616,0.595 -1.467,0.93 -2.399,0.945 h -0.012 -3.362 -0.012 c -0.932,-0.015 -1.783,-0.35 -2.399,-0.945 -0.619,-0.593 -0.986,-1.436 -1.016,-2.376 l -10e-4,-0.024 v -2.979 c 0,-0.72 0.286,-1.38 0.749,-1.859 0.32,-0.334 0.729,-0.583 1.187,-0.717 l 0.365,-6.559 c 0.021,-0.368 0.325,-0.656 0.694,-0.656 h 4.229 c 0.368,0 0.673,0.288 0.693,0.656 l 0.365,6.559 c 0.458,0.134 0.867,0.383 1.187,0.717 0.463,0.479 0.75,1.139 0.749,1.859 z m -7.007,7.612 c 10e-4,0.524 0.218,1.003 0.575,1.358 0.358,0.353 0.846,0.571 1.382,0.571 h 0.014 c 0.536,-0.005 0.996,-0.217 1.334,-0.563 0.337,-0.347 0.547,-0.826 0.547,-1.383 V 10.512 C -8.915,9.956 -9.124,9.493 -9.463,9.156 -9.803,8.822 -10.272,8.614 -10.835,8.613 h -0.004 c -0.543,0.002 -1.017,0.214 -1.364,0.559 -0.346,0.347 -0.558,0.82 -0.561,1.363 v 0.002 z m -1.389,-0.009 V 10.53 10.52 h 0.001 c 0.004,-0.908 0.371,-1.737 0.967,-2.33 0.597,-0.598 1.43,-0.965 2.343,-0.966 h 0.007 c 0.915,-0.001 1.752,0.351 2.349,0.945 0.6,0.591 0.961,1.423 0.964,2.337 v 0.017 c 0,0.914 -0.354,1.75 -0.941,2.352 -0.586,0.604 -1.412,0.978 -2.32,0.983 h -0.005 -0.019 c -0.917,0 -1.755,-0.374 -2.359,-0.973 -0.605,-0.597 -0.987,-1.431 -0.987,-2.345 z" /></g></g></g></g></svg>